<svg xmlns="http://www.w3.org/2000/svg" xmlns:xlink="http://www.w3.org/1999/xlink" xmlns:sketch="http://www.bohemiancoding.com/sketch/ns" viewBox="0 0 100 125" version="1.1" x="0px" y="0px">

<title>Re-play</title><desc>Created with Sketch.</desc>




<g sketch:type="MSArtboardGroup" fill="#055174">

<path d="M20.7462961,19.2111748 C28.3325375,11.1536782 39.5666822,7 52.4896412,7 C75.970027,7 95.0046406,26.0346136 95.0046406,49.5149994 C95.0046406,72.9953852 75.970027,92.0299988 52.4896412,92.0299988 C43.4748057,92.0299988 35.1152887,89.2242472 28.2367068,84.4383609 C27.646899,84.2696954 27.0869746,83.962681 26.6076763,83.5157281 L22.1001573,79.3123986 C20.4827965,77.8041853 20.393105,75.2717043 21.8954391,73.6606482 L27.1868419,67.9863134 C28.69114,66.3731512 31.2232857,66.2895105 32.8391054,67.7962867 L35.9255579,70.6744502 L35.9255579,70.6744502 C40.4994264,74.1832974 46.3229671,76.2837027 52.4896412,76.2837027 C67.2735878,76.2837027 79.2583445,64.298946 79.2583445,49.5149994 C79.2583445,34.7310528 67.2735878,22.7462961 52.4896412,22.7462961 C44.3112738,22.7462961 36.9895197,26.4138937 32.0793942,32.1940737 L32.0793942,32.1940737 L41.9402925,32.1940737 C44.1494742,32.1940737 45.9403698,33.9850436 45.9403698,36.1878848 L45.9403698,43.9465586 C45.9403698,46.1522796 44.1548881,47.9403698 41.9402925,47.9403698 L24.5442942,47.9403698 C20.9091182,48.1901676 10.5112823,47.9403717 10.5112036,47.9403698 L9.00007727,47.9403698 C7.89444208,47.9403698 6.89357624,47.4917803 6.16954305,46.767478 C5.44786578,46.049495 5,45.0486342 5,43.9402925 L5,11.0000773 C5,8.7908956 6.79096986,7 8.99381114,7 L16.7524849,7 C18.9582059,7 20.7462961,8.78548171 20.7462961,11.0000773 L20.7462961,19.2111748 Z" sketch:type="MSShapeGroup"/>

</g>






</svg>